<svg xmlns="http://www.w3.org/2000/svg" width="70" height="70" xmlns:xlink="http://www.w3.org/1999/xlink" version="1.1" x="0px" y="0px" viewBox="0 0 100 125" enable-background="new 0 0 0 0" xml:space="preserve"><path d="M72.146,54.9c-0.865-0.349-1.754-0.612-2.652-0.837V21.885c0-0.003-0.002-0.006-0.002-0.009s0.002-0.006,0.002-0.009  c0-0.299-0.137-0.559-0.345-0.742L54.454,6.323c-0.188-0.189-0.443-0.295-0.71-0.295H18.149c-1.654,0-3,1.346-3,3v67.93  c0,1.654,1.346,3,3,3h27.167c2.641,8.123,10.275,14.016,19.268,14.016c11.175,0,20.266-9.09,20.266-20.264  C84.851,65.387,79.863,58.004,72.146,54.9z M54.673,9.382l11.402,11.485H54.673V9.382z M44.776,77.957H18.149c-0.551,0-1-0.448-1-1  V9.027c0-0.551,0.449-1,1-1h34.523v13.84c0,0.552,0.447,1,1,1h13.821v30.806c-0.959-0.138-1.927-0.229-2.909-0.229  c-10.211,0-18.856,7.63-20.109,17.748c-0.103,0.827-0.155,1.674-0.155,2.518C44.32,75.167,44.482,76.586,44.776,77.957z   M64.585,91.973c-10.071,0-18.265-8.193-18.265-18.264c0-0.761,0.047-1.525,0.14-2.271c1.129-9.118,8.922-15.994,18.125-15.994  c2.359,0,4.652,0.441,6.814,1.313c6.956,2.798,11.451,9.452,11.451,16.953C82.851,83.779,74.656,91.973,64.585,91.973z   M71.421,74.543l-5.836,5.836V64.625c0-0.553-0.447-1-1-1s-1,0.447-1,1v15.75l-5.834-5.834c-0.391-0.391-1.023-0.391-1.414,0  s-0.391,1.023,0,1.414l7.536,7.536c0.094,0.096,0.206,0.172,0.333,0.224c0.104,0.043,0.214,0.059,0.325,0.065  c0.019,0.001,0.034,0.011,0.054,0.011h0.002c0.131,0,0.261-0.026,0.383-0.077c0.087-0.036,0.158-0.096,0.23-0.153  c0.03-0.024,0.066-0.035,0.094-0.063l7.541-7.541c0.391-0.391,0.391-1.023,0-1.414S71.812,74.152,71.421,74.543z M25.655,30.908  h33.333c0.553,0,1-0.448,1-1s-0.447-1-1-1H25.655c-0.552,0-1,0.448-1,1S25.103,30.908,25.655,30.908z M25.655,37.742h33.333  c0.553,0,1-0.448,1-1s-0.447-1-1-1H25.655c-0.552,0-1,0.448-1,1S25.103,37.742,25.655,37.742z M25.655,44.576h33.333  c0.553,0,1-0.448,1-1s-0.447-1-1-1H25.655c-0.552,0-1,0.448-1,1S25.103,44.576,25.655,44.576z M45.037,57.242c0-0.553-0.448-1-1-1  H25.655c-0.552,0-1,0.447-1,1s0.448,1,1,1h18.382C44.589,58.242,45.037,57.795,45.037,57.242z M25.655,51.408h33.333  c0.553,0,1-0.447,1-1c0-0.552-0.447-1-1-1H25.655c-0.552,0-1,0.448-1,1C24.655,50.961,25.103,51.408,25.655,51.408z M39.287,63.076  H25.655c-0.552,0-1,0.447-1,1s0.448,1,1,1h13.632c0.552,0,1-0.447,1-1S39.839,63.076,39.287,63.076z"/></svg>
