<svg xmlns="http://www.w3.org/2000/svg" viewBox="0 0 64 80" x="0px" y="0px"><g><path d="M61.917,32.6l-8.983-20.66a19.165,19.165,0,0,0,3.438-1.013l-.744-1.856a17.072,17.072,0,0,1-3.513.985l-.2-.456a1,1,0,0,0-1.834,0l-.3.683a17.057,17.057,0,0,1-3.87-.321l-2.961-.592A19.172,19.172,0,0,0,39.206,9H35V8.63a4,4,0,1,0-6,0V9H24.794a19.172,19.172,0,0,0-3.749.371l-2.961.592a17.062,17.062,0,0,1-3.87.321l-.3-.683a1,1,0,0,0-1.834,0l-.2.456a17.072,17.072,0,0,1-3.513-.985l-.744,1.856a19.165,19.165,0,0,0,3.438,1.013L2.083,32.6h0A.979.979,0,0,0,2,33a7.008,7.008,0,0,0,7,7h8a7.008,7.008,0,0,0,7-7,.979.979,0,0,0-.085-.4h0L15.081,12.279a19.114,19.114,0,0,0,3.4-.355l2.96-.592A17.183,17.183,0,0,1,24.794,11H29V52H27a4,4,0,0,0-4,4,4,4,0,0,0-4,4v1a1,1,0,0,0,1,1H44a1,1,0,0,0,1-1V60a4,4,0,0,0-4-4,4,4,0,0,0-4-4H35V11h4.206a17.165,17.165,0,0,1,3.356.332l2.961.592a19.011,19.011,0,0,0,3.395.355L40.083,32.6h0A.979.979,0,0,0,40,33a7.008,7.008,0,0,0,7,7h8a7.008,7.008,0,0,0,7-7,.979.979,0,0,0-.085-.4ZM17,38H9a5.008,5.008,0,0,1-4.9-4H21.9A5.008,5.008,0,0,1,17,38Zm4.475-6H4.525L13,12.508ZM32,4a2,2,0,0,1,2,2,1.977,1.977,0,0,1-.669,1.479A1,1,0,0,0,33,8.222V52H31V8.222a1,1,0,0,0-.331-.743A1.977,1.977,0,0,1,30,6,2,2,0,0,1,32,4Zm8,54h1a2,2,0,0,1,2,2H21a2,2,0,0,1,2-2H40Zm-3-4a2,2,0,0,1,2,2H25a2,2,0,0,1,2-2H37ZM51,12.508,59.475,32H42.525ZM55,38H47a5.008,5.008,0,0,1-4.9-4H59.9A5.008,5.008,0,0,1,55,38Z"/></g></svg>
