<svg xmlns="http://www.w3.org/2000/svg" xmlns:xlink="http://www.w3.org/1999/xlink" version="1.1" x="0px" y="0px" viewBox="0 0 64 80" style="enable-background:new 0 0 64 64;" xml:space="preserve"><g><path d="M44,34v-6c0-5.201-3.331-9.626-7.968-11.288C37.824,15.443,39,13.358,39,11c0-3.86-3.141-7-7-7s-7,3.14-7,7   c0,2.358,1.176,4.443,2.968,5.712C23.331,18.374,20,22.799,20,28v6c0,2.206,1.794,4,4,4h1.001l0.001,21.001   c0,2.205,1.794,3.999,3.999,3.999c1.2,0,2.266-0.542,2.999-1.382C32.734,62.458,33.8,63,35.001,63C37.206,63,39,61.206,39,59.001   V38h1C42.206,38,44,36.206,44,34z M27,11c0-2.757,2.243-5,5-5s5,2.243,5,5s-2.243,5-5,5S27,13.757,27,11z M37,23v36.001   C37,60.103,36.103,61,34.999,61C33.896,61,33,60.103,33,59.001V35h-2v24.001C31,60.103,30.104,61,29.001,61   s-1.999-0.897-1.999-1.999L27,24h-2l0.001,12H24c-1.103,0-2-0.897-2-2v-6c0-5.514,4.486-10,10-10s10,4.486,10,10v6   c0,1.103-0.897,2-2,2h-1V23H37z"/><path d="M52,23c6.065,0,11-4.935,11-11S58.065,1,52,1S41,5.935,41,12S45.935,23,52,23z M52,3c4.963,0,9,4.038,9,9s-4.037,9-9,9   s-9-4.038-9-9S47.037,3,52,3z"/><path d="M52,19c3.859,0,7-3.14,7-7h-2c0,2.757-2.243,5-5,5s-5-2.243-5-5h-2C45,15.86,48.141,19,52,19z"/><circle cx="49" cy="8" r="1"/><circle cx="55" cy="8" r="1"/><path d="M12,23c6.065,0,11-4.935,11-11S18.065,1,12,1S1,5.935,1,12S5.935,23,12,23z M12,3c4.963,0,9,4.038,9,9s-4.037,9-9,9   s-9-4.038-9-9S7.037,3,12,3z"/><path d="M12,13c2.206,0,4,1.794,4,4h2c0-3.309-2.691-6-6-6s-6,2.691-6,6h2C8,14.794,9.794,13,12,13z"/><circle cx="9" cy="8" r="1"/><circle cx="15" cy="8" r="1"/><path d="M52,41c-6.065,0-11,4.935-11,11s4.935,11,11,11s11-4.935,11-11S58.065,41,52,41z M52,61c-4.963,0-9-4.038-9-9s4.037-9,9-9   s9,4.038,9,9S56.963,61,52,61z"/><circle cx="49" cy="48" r="1"/><circle cx="55" cy="48" r="1"/><path d="M12,41C5.935,41,1,45.935,1,52s4.935,11,11,11s11-4.935,11-11S18.065,41,12,41z M12,61c-4.963,0-9-4.038-9-9s4.037-9,9-9   s9,4.038,9,9S16.963,61,12,61z"/><circle cx="9" cy="48" r="1"/><circle cx="15" cy="48" r="1"/><path d="M55.711,54.384c-0.383,0.49-0.489,0.576-0.714,0.576c-0.224,0-0.33-0.086-0.713-0.576   c-0.419-0.536-1.051-1.344-2.289-1.344c-1.237,0-1.869,0.809-2.287,1.345c-0.382,0.489-0.488,0.575-0.711,0.575   s-0.329-0.086-0.711-0.576C47.868,53.849,47.237,53.04,46,53.04v2c0.222,0,0.328,0.086,0.71,0.575   c0.418,0.535,1.05,1.345,2.287,1.345s1.869-0.809,2.287-1.345c0.382-0.489,0.488-0.575,0.711-0.575c0.224,0,0.33,0.086,0.713,0.576   c0.419,0.536,1.051,1.344,2.289,1.344s1.871-0.809,2.29-1.344c0.383-0.49,0.489-0.576,0.713-0.576v-2   C56.762,53.04,56.13,53.849,55.711,54.384z"/><rect x="6" y="54" width="12" height="2"/></g></svg>
