<svg xmlns="http://www.w3.org/2000/svg" xmlns:xlink="http://www.w3.org/1999/xlink" version="1.1" x="0px" y="0px" viewBox="0 0 50 62.5" enable-background="new 0 0 50 50" xml:space="preserve"><path d="M38.313,3.625H11.688c-1.654,0-3,1.344-3,3v36.75c0,1.654,1.346,3,3,3h26.625c1.654,0,3-1.346,3-3V6.625  C41.313,4.969,39.967,3.625,38.313,3.625z M39.813,43.375c0,0.826-0.674,1.5-1.5,1.5H11.688c-0.828,0-1.5-0.674-1.5-1.5V6.625  c0-0.828,0.672-1.5,1.5-1.5h26.625c0.826,0,1.5,0.672,1.5,1.5V43.375z"/><path d="M37.375,7.375h-24.75c-0.416,0-0.75,0.334-0.75,0.75V19c0,0.414,0.334,0.75,0.75,0.75h24.75c0.414,0,0.75-0.336,0.75-0.75  V8.125C38.125,7.709,37.789,7.375,37.375,7.375z M36.625,18.25h-23.25V8.875h23.25V18.25z"/><path d="M17.688,23.875h-5.063c-0.416,0-0.75,0.334-0.75,0.75v3.938c0,0.414,0.334,0.75,0.75,0.75h5.063  c0.414,0,0.75-0.336,0.75-0.75v-3.938C18.438,24.209,18.102,23.875,17.688,23.875z M16.938,27.813h-3.563v-2.438h3.563V27.813z"/><path d="M27.531,23.875h-5.063c-0.416,0-0.75,0.334-0.75,0.75v3.938c0,0.414,0.334,0.75,0.75,0.75h5.063  c0.414,0,0.75-0.336,0.75-0.75v-3.938C28.281,24.209,27.945,23.875,27.531,23.875z M26.781,27.813h-3.563v-2.438h3.563V27.813z"/><path d="M37.375,23.875h-5.063c-0.416,0-0.75,0.334-0.75,0.75v3.938c0,0.414,0.334,0.75,0.75,0.75h5.063  c0.414,0,0.75-0.336,0.75-0.75v-3.938C38.125,24.209,37.789,23.875,37.375,23.875z M36.625,27.813h-3.563v-2.438h3.563V27.813z"/><path d="M17.688,30.625h-5.063c-0.416,0-0.75,0.334-0.75,0.75v3.938c0,0.414,0.334,0.75,0.75,0.75h5.063  c0.414,0,0.75-0.336,0.75-0.75v-3.938C18.438,30.959,18.102,30.625,17.688,30.625z M16.938,34.563h-3.563v-2.438h3.563V34.563z"/><path d="M27.531,30.625h-5.063c-0.416,0-0.75,0.334-0.75,0.75v3.938c0,0.414,0.334,0.75,0.75,0.75h5.063  c0.414,0,0.75-0.336,0.75-0.75v-3.938C28.281,30.959,27.945,30.625,27.531,30.625z M26.781,34.563h-3.563v-2.438h3.563V34.563z"/><path d="M17.688,37.375h-5.063c-0.416,0-0.75,0.334-0.75,0.75v3.938c0,0.414,0.334,0.75,0.75,0.75h5.063  c0.414,0,0.75-0.336,0.75-0.75v-3.938C18.438,37.709,18.102,37.375,17.688,37.375z M16.938,41.313h-3.563v-2.438h3.563V41.313z"/><path d="M27.531,37.375h-5.063c-0.416,0-0.75,0.334-0.75,0.75v3.938c0,0.414,0.334,0.75,0.75,0.75h5.063  c0.414,0,0.75-0.336,0.75-0.75v-3.938C28.281,37.709,27.945,37.375,27.531,37.375z M26.781,41.313h-3.563v-2.438h3.563V41.313z"/><path d="M37.375,30.625h-5.063c-0.416,0-0.75,0.334-0.75,0.75v10.688c0,0.414,0.334,0.75,0.75,0.75h5.063  c0.414,0,0.75-0.336,0.75-0.75V31.375C38.125,30.959,37.789,30.625,37.375,30.625z M36.625,41.313h-3.563v-9.188h3.563V41.313z"/><rect x="33.346" y="15.098" width="1.805" height="1.805"/><rect x="29.848" y="15.098" width="1.805" height="1.805"/><rect x="26.346" y="15.098" width="1.805" height="1.805"/><rect x="12.188" y="20.813" width="5.063" height="1.5"/><rect x="19.5" y="20.813" width="2.531" height="1.5"/></svg>
