<svg xmlns="http://www.w3.org/2000/svg" xmlns:xlink="http://www.w3.org/1999/xlink" version="1.1" x="0px" y="0px" viewBox="0 0 100 125" style="enable-background:new 0 0 100 100;" xml:space="preserve"><g><path d="M65.5,15.1h3.8V24c0,0.8,0.7,1.5,1.5,1.5s1.5-0.7,1.5-1.5V13.6c0-0.8-0.7-1.5-1.5-1.5h-5.3c-0.8,0-1.5,0.7-1.5,1.5   S64.6,15.1,65.5,15.1z"/><path d="M79.5,63.4H42.3c-0.8,0-1.5,0.7-1.5,1.5s0.7,1.5,1.5,1.5h37.1c0.8,0,1.5-0.7,1.5-1.5S80.3,63.4,79.5,63.4z"/><path d="M79.5,69.1H42.3c-0.8,0-1.5,0.7-1.5,1.5s0.7,1.5,1.5,1.5h37.1c0.8,0,1.5-0.7,1.5-1.5S80.3,69.1,79.5,69.1z"/><path d="M79.5,74.7H42.3c-0.8,0-1.5,0.7-1.5,1.5s0.7,1.5,1.5,1.5h37.1c0.8,0,1.5-0.7,1.5-1.5S80.3,74.7,79.5,74.7z"/><path d="M66.9,80.4H42.3c-0.8,0-1.5,0.7-1.5,1.5s0.7,1.5,1.5,1.5h24.5c0.8,0,1.5-0.7,1.5-1.5S67.7,80.4,66.9,80.4z"/><path d="M95.6,25.7c-0.6-0.6-1.5-0.6-2.1,0l-2.4,2.4c-1.8-2.2-4.5-3.6-7.5-3.6c-3.9,0-7.2,2.3-8.8,5.6h-15V4c0-2.2-1.8-4-4-4H8   C5.8,0,4,1.8,4,4v63.2c0,2.2,1.8,4,4,4h24.9v15.2c0,0.4,0.2,0.8,0.4,1.1l0,0l12.1,12.1l0,0c0.1,0.1,0.3,0.2,0.4,0.3h0.1   c0.1,0,0.3,0.1,0.4,0.1h0.1c0,0,0,0,0.1,0h38.2c2.4,0,4.3-1.9,4.3-4.3V42.4c2.6-1.7,4.4-4.7,4.4-8.1c0-1.2-0.2-2.4-0.7-3.5l3-3   C96.2,27.3,96.2,26.3,95.6,25.7z M8,68.2c-0.6,0-1-0.5-1-1V4c0-0.6,0.5-1,1-1h47.9c0.6,0,1,0.5,1,1v26.1H37.2c-2.3,0-4.1,1.8-4.3,4   H13.3c-0.8,0-1.5,0.7-1.5,1.5s0.7,1.5,1.5,1.5h19.6v2.7H13.3c-0.8,0-1.5,0.7-1.5,1.5s0.7,1.5,1.5,1.5h19.6v2.7H13.3   c-0.8,0-1.5,0.7-1.5,1.5s0.7,1.5,1.5,1.5h19.6v2.7H13.3c-0.8,0-1.5,0.7-1.5,1.5s0.7,1.5,1.5,1.5h19.6v14.1H8V68.2z M43.7,87.9   L43.7,87.9L43.7,87.9L43.7,87.9c0.7,0,1.3,0.6,1.3,1.3l0,0v5.7l-6.9-7H43.7z M85.9,95.7c0,0.7-0.6,1.3-1.3,1.3H47.9v-7.7   c0,0,0,0,0-0.1c0-2.4-1.9-4.3-4.3-4.3l0,0l0,0h-7.8V34.4c0-0.7,0.6-1.3,1.3-1.3h36.8c0,0.4-0.1,0.8-0.1,1.2c0,5.4,4.4,9.7,9.7,9.7   c0.8,0,1.6-0.1,2.4-0.3V95.7z M90.3,34.3c0,3.7-3,6.7-6.7,6.7s-6.7-3-6.7-6.7s3-6.7,6.7-6.7c2.2,0,4.2,1.1,5.4,2.7l-4.8,4.8   l-2.6-2.6c-0.6-0.6-1.5-0.6-2.1,0s-0.6,1.5,0,2.1l3.7,3.7c0.3,0.3,0.7,0.4,1.1,0.4s0.8-0.2,1.1-0.4l5-5   C90.3,33.6,90.3,33.9,90.3,34.3z"/><path d="M57.3,54.2h7.1l1.4,4.2h4.3l-7.1-19h-4.3l-7.2,19h4.2L57.3,54.2z M60.9,44.1L60.9,44.1l2.4,7h-4.9L60.9,44.1z"/><path d="M23.4,22.9c0,1.9,1.2,3.1,3.1,3.1c2.3,0,4.6-1.5,5.4-2.2c0.7-0.7,2.8-3,3.7-4.8c1.1,0.5,1.7,1.4,1.7,2.4   c0,2.1-2.1,3.4-5.3,3.7l1.6,2.2c5.1-0.7,6.9-2.8,6.9-6c0-2.7-1.7-4.3-3.8-5c0-0.2,0.1-0.4,0.2-0.6L34,15.2c0,0.3-0.1,0.3-0.1,0.6   c-1-0.1-2.2,0.1-2.6,0.2c0-0.5,0-2,0-2.5c2.4-0.1,4.8-0.3,7-0.6L38,10c-2.3,0.5-4.5,0.7-6.6,0.8c0.1-0.6,0.1-2.2,0.1-2.2l-3.1-0.2   c0,0.8-0.1,1.7-0.1,2.5c-1.4,0-3,0-3.8,0l0.1,2.8h0.3c0.8,0,2.1,0,3.3-0.1c0,0.8,0,2.4,0,3.2C25.4,18,23.4,20.2,23.4,22.9z    M32.7,18.4c-0.4,0.8-0.9,1.6-1.5,2.2c-0.1-0.7-0.1-1.3-0.2-2C31.3,18.6,32.2,18.4,32.7,18.4z M28.3,19.6c0.1,1.1,0.2,2.2,0.4,3.1   c-0.5,0.3-1,0.4-1.5,0.4c-1,0-1-0.6-1-0.9C26.3,21.2,27.1,20.3,28.3,19.6z"/></g></svg>
