<svg xmlns="http://www.w3.org/2000/svg" viewBox="0 0 64 80" x="0px" y="0px"><g><path d="M61,35H58.46l-5.1-5.948,4.345-4.345a1,1,0,0,0,0-1.414l-3-3a1,1,0,0,0-1.414,0L46.5,27.086,46,27.2V2H2V62H46V46.816a2.934,2.934,0,0,0,3.6-1.349L51.2,47.6a1,1,0,0,0,.8.4h3.808l4.82,1.929A1,1,0,0,0,62,49V36A1,1,0,0,0,61,35ZM54,22.414,55.586,24,54,25.586,52.414,24Zm-3,3L52.586,27l-7,7H42.414ZM39.586,34H38.22l.633-3.165,5.012-1.114ZM44,60H4V4H44V27.642l-6.217,1.381a1,1,0,0,0-.763.781l-.867,4.333a2.975,2.975,0,0,0-.952,5.248l-1.908,1.908a1.787,1.787,0,0,0-.15.192l-3,5a.993.993,0,0,0-.022.98l-.828.828a1.063,1.063,0,0,0-.125.152c-.216.325-.642.868-1.063.868h0c-.486,0-1.064-.634-1.266-.937a1,1,0,0,0-.832-.455H26a1,1,0,0,0-.832.445c-.22.331-.655.886-1.091.888h0c-.48,0-1.046-.6-1.242-.888a.994.994,0,0,0-1.148-.393,12.905,12.905,0,0,1-2.346.5,5.581,5.581,0,0,0,.884-1.524,4,4,0,0,0-.365-3.546,4.25,4.25,0,0,0-4.164-2.386A5.3,5.3,0,0,0,11.446,44.5a3.811,3.811,0,0,0,.847,4.127,6.066,6.066,0,0,0,1.974,1.308,29.651,29.651,0,0,1-4.583,2.037l.632,1.9a28.616,28.616,0,0,0,6.748-3.318,15.228,15.228,0,0,0,4.582-.488,3.474,3.474,0,0,0,2.428,1.191,2.837,2.837,0,0,0,1.947-.813,3.219,3.219,0,0,0,2.068.872h.017a3.273,3.273,0,0,0,2.668-1.673l.768-.768A.984.984,0,0,0,32,49a1,1,0,0,0,.515-.143l5-3a1.787,1.787,0,0,0,.192-.15L40,43.414V44a3,3,0,0,0,3,3,2.966,2.966,0,0,0,1-.184ZM35.387,44.8l-2.971,1.784L34.2,43.613Zm-17.04,1.457A5.563,5.563,0,0,1,16.5,48.477a4.9,4.9,0,0,1-2.793-1.263,1.853,1.853,0,0,1-.377-2.039,3.333,3.333,0,0,1,2.56-2.165c.067-.006.133-.01.2-.01a2.455,2.455,0,0,1,2.054,1.436A1.984,1.984,0,0,1,18.347,46.258ZM35.414,42l2-2h3.172L37,43.586ZM44,44a1,1,0,0,1-2,0V41.414L43.414,40H44Zm4,0a1,1,0,0,1-2,0V40.667l2,2.666Zm12,3.523-3.628-1.452A1.012,1.012,0,0,0,56,46H52.5l-5.7-7.6A1,1,0,0,0,46,38H37a1,1,0,0,1,0-2h9a1,1,0,0,0,.707-.293l5.236-5.236,5.3,6.179A1,1,0,0,0,58,37h2Z"/><path d="M53.8,35.4l-1.6,1.2,3,4a1,1,0,0,0,.8.4h2V39H56.5Z"/><rect x="40" y="56" width="2" height="2"/><rect x="36" y="56" width="2" height="2"/><path d="M24,20a7,7,0,1,0-7-7A7.008,7.008,0,0,0,24,20ZM24,8a5,5,0,1,1-5,5A5.006,5.006,0,0,1,24,8Z"/><rect x="11" y="22" width="30" height="2"/><rect x="7" y="26" width="18" height="2"/><rect x="27" y="26" width="14" height="2"/><rect x="7" y="30" width="8" height="2"/><rect x="17" y="30" width="18" height="2"/><rect x="7" y="34" width="14" height="2"/><rect x="23" y="34" width="9" height="2"/></g></svg>
