<svg xmlns="http://www.w3.org/2000/svg" xmlns:xlink="http://www.w3.org/1999/xlink" version="1.1" x="0px" y="0px" viewBox="0 0 64 80" style="enable-background:new 0 0 64 64;" xml:space="preserve"><g><g><g><path d="M62,58H31.035c-0.552,0-1-0.448-1-1V37.179c0-1.281,0.815-2.438,2.077-2.949l8.397-3.404     c0.476-0.193,1.02,0.005,1.259,0.459l4.48,8.467c0.148,0.278,0.392,0.276,0.539,0l4.48-8.467     c0.247-0.466,0.816-0.659,1.294-0.444l8.487,3.822C62.234,35.197,63,36.333,63,37.559V57C63,57.552,62.552,58,62,58z M32.035,56     H61V37.559c0-0.447-0.296-0.858-0.771-1.072c0,0,0,0,0,0l-7.632-3.437l-4.042,7.638c-0.402,0.76-1.183,1.232-2.037,1.232     c-0.854,0-1.634-0.472-2.037-1.232l-4.058-7.669l-7.56,3.064c-0.503,0.204-0.828,0.634-0.828,1.096V56z"/><path d="M46.518,29.426c-5.533,0-10.034-4.568-10.034-10.183v-3.061C36.483,10.568,40.985,6,46.518,6     c5.533,0,10.035,4.568,10.035,10.183v3.061C56.552,24.858,52.051,29.426,46.518,29.426z M46.518,8     c-4.43,0-8.034,3.671-8.034,8.183v3.061c0,4.512,3.604,8.183,8.034,8.183s8.035-3.671,8.035-8.183v-3.061     C54.552,11.671,50.948,8,46.518,8z"/></g><g><path d="M23.471,22.172c-0.265,0-0.525-0.105-0.718-0.304l-3.967-4.089H3.021C1.906,17.779,1,16.759,1,15.505V8.82     c0.048-1.273,0.935-2.241,2.021-2.241h24.518c1.114,0,2.021,1.02,2.021,2.273v6.653c0,1.253-0.907,2.273-2.021,2.273h-3.531     l0.454,3.255c0.06,0.429-0.163,0.847-0.551,1.037C23.769,22.139,23.619,22.172,23.471,22.172z M19.209,15.779     c0.271,0,0.529,0.109,0.718,0.304l2.13,2.196l-0.19-1.362c-0.04-0.287,0.046-0.576,0.236-0.794s0.465-0.344,0.754-0.344h4.673     c-0.043-0.004,0.028-0.1,0.028-0.273V8.852c0-0.182-0.078-0.278-0.098-0.292L3.086,8.579C3.053,8.622,3.004,8.719,3,8.858     l0,6.647c0,0.182,0.079,0.278,0.098,0.292L19.209,15.779z"/><g><path d="M23.776,13.308H13.428c-0.552,0-1-0.448-1-1s0.448-1,1-1h10.349c0.552,0,1,0.448,1,1S24.329,13.308,23.776,13.308z"/><path d="M9.666,13.308H6.783c-0.552,0-1-0.448-1-1s0.448-1,1-1h2.883c0.552,0,1,0.448,1,1S10.218,13.308,9.666,13.308z"/></g></g></g></g></svg>
