<svg xmlns="http://www.w3.org/2000/svg" xmlns:xlink="http://www.w3.org/1999/xlink" version="1.1" x="0px" y="0px" viewBox="0 0 68 85" style="enable-background:new 0 0 68 68;" xml:space="preserve"><style type="text/css">
	.st0{fill:#010101;}
</style><g><g><path class="st0" d="M66,43.2h-3v-5c0-4.6-3.9-8.3-8.6-7.9V16.2c0-0.4-0.1-0.7-0.4-0.9l-14.4-14c0,0,0,0,0,0    C39.4,1.1,39.1,1,38.9,1H2C1.4,1,1,1.4,1,2v64c0,0.6,0.4,1,1,1h51.4c0.6,0,1-0.4,1-1v-3.4h9.3c1.8,0,3.3-1.5,3.3-3.3V44.2    C67,43.6,66.6,43.2,66,43.2z M61,38.2v5H49.1v-5c0-3.3,2.7-6,6-6C58.4,32.2,61,34.9,61,38.2z M51,15.1h-11V4.4L51,15.1z M52.4,65    H3V3h34.9v13.1c0,0.6,0.4,1,1,1h13.5v13.6c-3.3,1.2-5.3,4.2-5.3,7.5v5h-3c-0.6,0-1,0.4-1,1v15.1c0,1.8,1.5,3.3,3.3,3.3h6.1V65z     M65,59.3c0,0.7-0.6,1.3-1.3,1.3H46.4c-0.7,0-1.3-0.6-1.3-1.3V45.2c7.5,0,12.5,0,19.9,0V59.3z"/></g><g><path class="st0" d="M54,55.6v1.6c0,0.6,0.4,1,1,1c0.6,0,1-0.4,1-1v-1.6c1.2-0.4,2.1-1.6,2.1-2.9c0-1.7-1.4-3.1-3.1-3.1    c-1.7,0-3.1,1.4-3.1,3.1C52,54,52.8,55.2,54,55.6z M55,51.6c0.6,0,1.1,0.5,1.1,1.1c0,0.6-0.5,1.1-1.1,1.1c-0.6,0-1.1-0.5-1.1-1.1    C54,52.1,54.4,51.6,55,51.6z"/></g><g><path class="st0" d="M7.7,17.1h25.4c0.6,0,1-0.4,1-1V7c0-0.6-0.4-1-1-1H7.7c-0.6,0-1,0.4-1,1v9.1C6.7,16.6,7.2,17.1,7.7,17.1z     M8.7,8h23.4v7.1H8.7V8z"/></g><g><path class="st0" d="M7.7,25.5h36.4c0.6,0,1-0.4,1-1c0-0.6-0.4-1-1-1H7.7c-0.6,0-1,0.4-1,1C6.7,25.1,7.2,25.5,7.7,25.5z"/></g><g><path class="st0" d="M7.7,33.8h36.4c0.6,0,1-0.4,1-1c0-0.6-0.4-1-1-1H7.7c-0.6,0-1,0.4-1,1C6.7,33.3,7.2,33.8,7.7,33.8z"/></g><g><path class="st0" d="M7.7,42h36.4c0.6,0,1-0.4,1-1c0-0.6-0.4-1-1-1H7.7c-0.6,0-1,0.4-1,1C6.7,41.6,7.2,42,7.7,42z"/></g><g><path class="st0" d="M39.1,48.3H7.7c-0.6,0-1,0.4-1,1c0,0.6,0.4,1,1,1h31.4c0.6,0,1-0.4,1-1C40.1,48.8,39.6,48.3,39.1,48.3z"/></g><g><path class="st0" d="M39.1,56.6H7.7c-0.6,0-1,0.4-1,1c0,0.6,0.4,1,1,1h31.4c0.6,0,1-0.4,1-1C40.1,57,39.6,56.6,39.1,56.6z"/></g></g></svg>
