<svg xmlns="http://www.w3.org/2000/svg" xmlns:xlink="http://www.w3.org/1999/xlink" version="1.1" x="0px" y="0px" viewBox="0 0 128 160" enable-background="new 0 0 128 128" xml:space="preserve"><title>solid</title><path d="M94,80c0,1.1,0.9,2,2,2h16c1.1,0,2-0.9,2-2s-0.9-2-2-2H96C94.9,78,94,78.9,94,80z"/><path d="M14,118c0,1.1,0.9,2,2,2h16c1.1,0,2-0.9,2-2s-0.9-2-2-2H16C14.9,116,14,116.9,14,118z"/><path d="M44,118.2c0,3.2-2.5,5.8-5.7,5.8H9.6c-3.2,0-5.7-2.7-5.6-5.8V47.8C4,44.7,6.5,42,9.6,42h1.1l0.9,1.9  c1.1,2.3,3.4,3.9,5.9,4.1h12.9c2.6-0.2,4.9-1.8,5.9-4.1l0.9-1.9h1.1c3.2,0,5.7,2.7,5.7,5.8v23.8h1l3-2.7V47.8c0-5.4-4.3-9.8-9.7-9.8  H9.6C4.3,38.1,0,42.4,0,47.8v70.4c0,5.4,4.3,9.8,9.6,9.8h28.7c5.4-0.1,9.7-4.4,9.7-9.8V112h-4V118.2z M32.8,42.2  c-0.4,0.9-1.3,1.6-2.3,1.8H17.5c-1-0.2-1.9-0.9-2.3-1.8L15.1,42h17.7L32.8,42.2z"/><path d="M61.4,75.7H61l1.3-9.4c0.1-1.1-0.7-2.1-1.8-2.2C60,64,59.4,64.2,59,64.5L46.6,75.7H31.3c-2.9,0-5.3,2.4-5.3,5.3v21.7  c0,2.9,2.3,5.3,5.3,5.3h29.5c2.9,0,5.3-2.4,5.3-5.3V81C66,78.1,63.9,75.7,61.4,75.7z M62,102.7c0,0.7-0.6,1.3-1.3,1.3H31.3  c-0.7,0-1.3-0.6-1.3-1.3V81c0-0.7,0.6-1.3,1.3-1.3h16.1c0.5,0,1-0.2,1.3-0.5l8.9-8l-0.8,6.3c-0.1,1.1,0.6,2.1,1.7,2.3  c0.1,0,0.2,0,0.3,0h2.6c0.2,0,0.6,0.5,0.6,1.3L62,102.7z"/><path d="M118.3,0H89.7C84.3,0.1,80,4.4,80,9.8V20h4V9.8C84,6.7,86.5,4,89.7,4h1.1l0.9,1.9c1.1,2.3,3.4,3.9,5.9,4.1h12.9  c2.6-0.2,4.9-1.8,5.9-4.1l0.9-1.9h1.1c3.2,0,5.7,2.6,5.7,5.8c0,0,0,0,0,0v70.4c0,3.2-2.5,5.8-5.7,5.8H89.7c-3.2,0-5.7-2.7-5.7-5.8  v-19l-4,3.6v15.4c0,5.4,4.3,9.8,9.7,9.8h28.7c5.4-0.1,9.7-4.4,9.6-9.8V9.8C128,4.4,123.7,0.1,118.3,0z M112.8,4.2  c-0.4,0.9-1.3,1.6-2.3,1.8H97.5c-1-0.2-1.9-0.9-2.3-1.8L95.1,4h17.8L112.8,4.2z"/><path d="M98.7,56.3c2.9,0,5.3-2.4,5.3-5.3V29.3c0-2.9-2.3-5.3-5.3-5.3H69.3c-2.9,0-5.3,2.4-5.3,5.3V51c0,2.9,2.1,5.3,4.6,5.3H69  l-1.3,9.4c-0.1,1.1,0.7,2.1,1.8,2.2c0.5,0.1,1.1-0.1,1.5-0.5l12.4-11.2H98.7z M81.3,52.8l-8.9,8l0.8-6.3c0.1-1.1-0.6-2.1-1.7-2.3  c-0.1,0-0.2,0-0.3,0h-2.6c-0.2,0-0.6-0.5-0.6-1.3V29.3c0-0.7,0.6-1.3,1.3-1.3h29.5c0.7,0,1.3,0.6,1.3,1.3V51c0,0.7-0.6,1.3-1.3,1.3  H82.7C82.2,52.3,81.7,52.5,81.3,52.8L81.3,52.8z"/><path d="M92,34H76c-1.1,0-2,0.9-2,2s0.9,2,2,2h1.7v8c0,1.1,0.9,2,2,2s2-0.9,2-2v-8h4.5v8c0,1.1,0.9,2,2,2s2-0.9,2-2v-8H92  c1.1,0,2-0.9,2-2S93.1,34,92,34z"/></svg>
