<svg xmlns="http://www.w3.org/2000/svg" xmlns:xlink="http://www.w3.org/1999/xlink" version="1.1" x="0px" y="0px" viewBox="0 0 512 640" style="enable-background:new 0 0 512 512;" xml:space="preserve"><g><g><g><path d="M406,493H96c-3.866,0-7-3.134-7-7V256c0-3.866,3.134-7,7-7h310c3.866,0,7,3.134,7,7v230C413,489.866,409.866,493,406,493     z M103,479h296V263H103V479z"/></g><g><path d="M335.842,153H166.158c-3.708,0-6.773-2.892-6.988-6.594c-0.114-1.969-0.17-3.738-0.17-5.406c0-50.729,41.271-92,92-92     s92,41.271,92,92c0,1.658-0.056,3.426-0.17,5.404C342.616,150.107,339.551,153,335.842,153z M173.025,139h155.949     C327.909,96.912,293.34,63,251,63S174.091,96.912,173.025,139z"/></g><g><path d="M366,263H136c-3.866,0-7-3.134-7-7V146c0-3.866,3.134-7,7-7h230c3.866,0,7,3.134,7,7v110     C373,259.866,369.866,263,366,263z M143,249h216v-96H143V249z"/></g><g><path d="M276,493h-50c-3.866,0-7-3.134-7-7v-70c0-3.866,3.134-7,7-7h50c3.866,0,7,3.134,7,7v70C283,489.866,279.866,493,276,493z      M233,479h36v-56h-36V479z"/></g><g><path d="M406,453H276c-3.866,0-7-3.134-7-7s3.134-7,7-7h130c3.866,0,7,3.134,7,7S409.866,453,406,453z"/></g><g><path d="M226,453H96c-3.866,0-7-3.134-7-7s3.134-7,7-7h130c3.866,0,7,3.134,7,7S229.866,453,226,453z"/></g><g><path d="M436,493H66c-3.866,0-7-3.134-7-7s3.134-7,7-7h370c3.866,0,7,3.134,7,7S439.866,493,436,493z"/></g><g><path d="M251,63c-3.866,0-7-3.134-7-7V26c0-3.866,3.134-7,7-7s7,3.134,7,7v30C258,59.866,254.866,63,251,63z"/></g><rect x="136" y="286" width="20" height="30"/><rect x="166" y="166" width="20" height="30"/><rect x="196" y="166" width="20" height="30"/><rect x="226" y="166" width="20" height="30"/><rect x="256" y="166" width="20" height="30"/><rect x="286" y="166" width="20" height="30"/><rect x="316" y="166" width="20" height="30"/><rect x="166" y="206" width="20" height="30"/><rect x="196" y="206" width="20" height="30"/><rect x="226" y="206" width="20" height="30"/><rect x="256" y="206" width="20" height="30"/><rect x="286" y="206" width="20" height="30"/><rect x="316" y="206" width="20" height="30"/><rect x="166" y="286" width="20" height="30"/><rect x="196" y="286" width="20" height="30"/><rect x="226" y="286" width="20" height="30"/><rect x="256" y="286" width="20" height="30"/><rect x="286" y="286" width="20" height="30"/><rect x="316" y="286" width="20" height="30"/><rect x="346" y="286" width="20" height="30"/><rect x="136" y="326" width="20" height="30"/><rect x="166" y="326" width="20" height="30"/><rect x="196" y="326" width="20" height="30"/><rect x="226" y="326" width="20" height="30"/><rect x="256" y="326" width="20" height="30"/><rect x="286" y="326" width="20" height="30"/><rect x="316" y="326" width="20" height="30"/><rect x="346" y="326" width="20" height="30"/><rect x="136" y="366" width="20" height="30"/><rect x="166" y="366" width="20" height="30"/><rect x="196" y="366" width="20" height="30"/><rect x="226" y="366" width="20" height="30"/><rect x="256" y="366" width="20" height="30"/><rect x="286" y="366" width="20" height="30"/><rect x="316" y="366" width="20" height="30"/><rect x="346" y="366" width="20" height="30"/><g><path d="M131,93H71c-11.457,0-20.896-8.802-21.91-20H41c-12.131,0-22-9.869-22-22s9.869-22,22-22h60     c11.457,0,20.896,8.802,21.91,20H131c12.131,0,22,9.869,22,22S143.131,93,131,93z M41,43c-4.411,0-8,3.589-8,8s3.589,8,8,8     h15.872c2.273,0,4.405,1.104,5.717,2.961s1.64,4.235,0.88,6.378C63.158,69.218,63,70.113,63,71c0,4.411,3.589,8,8,8h60     c4.411,0,8-3.589,8-8s-3.589-8-8-8h-15.872c-2.273,0-4.404-1.104-5.716-2.959c-1.312-1.856-1.641-4.233-0.883-6.376     C108.841,52.782,109,51.885,109,51c0-4.411-3.589-8-8-8H41z"/></g><g><path d="M473.5,134.666h-50c-9.79,0-17.918-7.251-19.295-16.666H398.5c-10.752,0-19.5-8.748-19.5-19.5S387.748,79,398.5,79h50     c9.79,0,17.918,7.251,19.295,16.666h5.705c10.752,0,19.5,8.748,19.5,19.5S484.252,134.666,473.5,134.666z M398.5,93     c-3.032,0-5.5,2.467-5.5,5.5s2.468,5.5,5.5,5.5h13.227c2.272,0,4.404,1.104,5.716,2.959c1.313,1.856,1.642,4.233,0.883,6.376     c-0.216,0.61-0.325,1.226-0.325,1.831c0,3.033,2.468,5.5,5.5,5.5h50c3.032,0,5.5-2.467,5.5-5.5s-2.468-5.5-5.5-5.5h-13.227     c-2.272,0-4.404-1.104-5.716-2.959c-1.313-1.856-1.642-4.233-0.883-6.376C453.891,99.72,454,99.104,454,98.5     c0-3.033-2.468-5.5-5.5-5.5H398.5z"/></g><g><path d="M326,123h-70c-3.866,0-7-3.134-7-7s3.134-7,7-7h70c3.866,0,7,3.134,7,7S329.866,123,326,123z"/></g><g><path d="M226,103h-40c-3.866,0-7-3.134-7-7s3.134-7,7-7h40c3.866,0,7,3.134,7,7S229.866,103,226,103z"/></g></g></g></svg>
