<svg xmlns="http://www.w3.org/2000/svg" xmlns:xlink="http://www.w3.org/1999/xlink" version="1.1" x="0px" y="0px" viewBox="0 0 66 82.5" enable-background="new 0 0 66 66" xml:space="preserve"><g><path d="M36.5,39.8c0.4-0.4,0.4-1,0-1.4s-1-0.4-1.4,0c-1.1,1.1-3,1.1-4.1,0c-0.4-0.4-1-0.4-1.4,0   c-0.4,0.4-0.4,1,0,1.4c1,1,2.2,1.4,3.5,1.4C34.3,41.3,35.5,40.8,36.5,39.8z"/><path d="M35.8,33.3h2c0.6,0,1-0.4,1-1s-0.4-1-1-1h-2c-0.6,0-1,0.4-1,1S35.2,33.3,35.8,33.3z"/><path d="M32.3,32.3c0-0.6-0.4-1-1-1h-2c-0.6,0-1,0.4-1,1s0.4,1,1,1h2C31.8,33.3,32.3,32.9,32.3,32.3z"/><path d="M48.9,51.7c-0.5-2.3-2.6-4-5-4h-6.9v-2.2c3.7-1.5,5.7-5,5.7-8.5v-2.1h1.2c0.3,0,0.6-0.2,0.8-0.4   c4.9-7.1,0.7-20.7-11.7-20.7c-11.6,0-15.6,13.4-11.8,20.6c0.2,0.3,0.5,0.5,0.9,0.5h1.2v1.8c0,3.8,2.1,7.2,5.7,8.8v2.3h-6.9   c-2.4,0-4.5,1.6-5,4l-2.8,12c-0.1,0.3,0,0.6,0.2,0.8c0.2,0.2,0.5,0.4,0.8,0.4h35.5c0.3,0,0.6-0.1,0.8-0.4c0.2-0.2,0.3-0.6,0.2-0.8   L48.9,51.7z M22.7,32.9c-2.8-6.5,0.8-17.1,10.3-17.1c9.9,0,14.3,10.7,10.3,17.1h-0.6v-4c0-4.1-2.6-7.8-6.5-9.2   c-0.3-0.1-0.5-0.1-0.8,0c-0.2,0.1-0.4,0.3-0.5,0.6c-1.4,4.3-6.2,7.7-10.7,7.6c-0.3,0-0.5,0.1-0.7,0.3c-0.2,0.2-0.3,0.4-0.3,0.7v3.9   H22.7z M25.3,36.6v-6.7c4.8-0.3,9.3-3.7,11.2-7.9c2.6,1.3,4.3,4,4.3,6.9V37C40.7,46.8,25.3,46.8,25.3,36.6z M33,46.4   c0.7,0,1.4-0.1,2.1-0.2c0,0.3,0,3.2,0,3c0,2.2-4.1,2.3-4.1-0.4v-2.6C31.6,46.3,32.3,46.4,33,46.4z M16.5,63L19,52.2   c0.3-1.4,1.6-2.4,3.1-2.4h7c0.5,1.8,2.1,3.1,3.9,3.1c1.7,0,3.6-1.1,4-3.1h6.9c1.5,0,2.7,1,3.1,2.4L49.5,63H16.5z"/><path d="M64,36h-8.7v-1.7c0-0.4-0.2-0.7-0.6-0.9c-0.3-0.2-0.8-0.1-1.1,0.1l-6.2,5c-0.2,0.2-0.4,0.5-0.4,0.8   s0.1,0.6,0.4,0.8l6.2,5c0.3,0.2,0.7,0.3,1.1,0.1c0.3-0.2,0.6-0.5,0.6-0.9v-1.7H64c0.6,0,1-0.4,1-1V37C65,36.5,64.6,36,64,36z    M63,40.7h-8.7c-0.6,0-1,0.4-1,1v0.6l-3.6-2.9l3.6-2.9V37c0,0.6,0.4,1,1,1H63V40.7z"/><path d="M18.9,39.4c0-0.3-0.1-0.6-0.4-0.8l-6.2-5c-0.3-0.2-0.7-0.3-1.1-0.1c-0.3,0.2-0.6,0.5-0.6,0.9V36H2   c-0.6,0-1,0.4-1,1v4.7c0,0.6,0.4,1,1,1h8.7v1.7c0,0.4,0.2,0.7,0.6,0.9c0.4,0.2,0.8,0.1,1.1-0.1l6.2-5   C18.7,39.9,18.9,39.7,18.9,39.4z M12.7,42.3v-0.6c0-0.6-0.4-1-1-1H3V38h8.7c0.6,0,1-0.4,1-1v-0.6l3.6,2.9L12.7,42.3z"/><path d="M54.3,22.4c5.9,0,10.7-4.8,10.7-10.7S60.2,1,54.3,1S43.6,5.8,43.6,11.7S48.4,22.4,54.3,22.4z M54.3,3   c4.8,0,8.7,3.9,8.7,8.7c0,4.8-3.9,8.7-8.7,8.7s-8.7-3.9-8.7-8.7C45.6,6.9,49.5,3,54.3,3z"/><path d="M52.2,15.3c0.2,0.2,0.5,0.3,0.7,0.3s0.5-0.1,0.7-0.3l5.7-5.7c0.4-0.4,0.4-1,0-1.4s-1-0.4-1.4,0l-5,5   l-2.2-2.2c-0.4-0.4-1-0.4-1.4,0s-0.4,1,0,1.4L52.2,15.3z"/></g></svg>
